<svg width="168" height="43" viewBox="0 0 168 43" fill="none" xmlns="http://www.w3.org/2000/svg">
    <path d="M2.04002 42.52L2.44081e-05 37.56C1.41336 37.08 2.70669 36.52 3.88002 35.88C5.08002 35.24 6.12002 34.5334 7.00002 33.76C7.88002 32.9867 8.56002 32.1467 9.04002 31.24C9.52002 30.3067 9.76002 29.3067 9.76002 28.24C9.76002 27.12 9.50669 25.8934 9.00002 24.56C8.49336 23.2267 7.88002 21.8667 7.16002 20.48L12.4 17.96C12.88 18.7867 13.2934 19.68 13.64 20.64C14.0134 21.5734 14.32 22.4134 14.56 23.16C14.8 23.9067 14.96 24.4134 15.04 24.68C15.4134 25.96 15.92 26.8134 16.56 27.24C17.2267 27.6667 18.2934 27.88 19.76 27.88C20.7734 27.88 21.4934 28.1467 21.92 28.68C22.3734 29.1867 22.6 29.8267 22.6 30.6C22.6 31.4267 22.32 32.12 21.76 32.68C21.2 33.2134 20.4 33.48 19.36 33.48C18.2667 33.48 17.3067 33.32 16.48 33C15.6534 32.68 14.9867 32.2134 14.48 31.6C14 30.9867 13.6934 30.2667 13.56 29.44L15.04 30.28C14.88 31.6934 14.4134 33.0267 13.64 34.28C12.8934 35.56 11.92 36.7334 10.72 37.8C9.52002 38.8667 8.17336 39.8 6.68002 40.6C5.18669 41.4 3.64002 42.04 2.04002 42.52ZM19.4078 33.48L19.8078 27.88C20.7678 27.88 21.5945 27.7867 22.2878 27.6C22.9812 27.4134 23.5678 27.04 24.0478 26.48C24.5278 25.8934 24.9278 25.04 25.2478 23.92C25.5945 22.8 25.9012 21.3067 26.1678 19.44L31.4078 20.32C31.3545 20.72 31.2745 21.1867 31.1678 21.72C31.0878 22.2534 31.0078 22.8 30.9278 23.36C30.8745 23.8934 30.8478 24.4 30.8478 24.88C30.8478 25.36 30.9412 25.7867 31.1278 26.16C31.3145 26.5334 31.6078 26.8534 32.0078 27.12C32.4345 27.36 32.9812 27.5467 33.6478 27.68C34.3412 27.8134 35.1812 27.88 36.1678 27.88C37.1812 27.88 37.9012 28.1467 38.3278 28.68C38.7545 29.1867 38.9678 29.8267 38.9678 30.6C38.9678 31.4267 38.6878 32.12 38.1278 32.68C37.5945 33.2134 36.8078 33.48 35.7678 33.48C34.5678 33.48 33.4745 33.3867 32.4878 33.2C31.5278 33.0134 30.6878 32.7067 29.9678 32.28C29.2745 31.8267 28.7012 31.24 28.2478 30.52C27.8212 29.7734 27.5545 28.8667 27.4478 27.8H29.3678C28.8878 29.08 28.2745 30.1067 27.5278 30.88C26.8078 31.6267 25.9945 32.1867 25.0878 32.56C24.1812 32.9334 23.2345 33.1734 22.2478 33.28C21.2878 33.4134 20.3412 33.48 19.4078 33.48ZM32.2478 15.84C31.4745 15.84 30.8078 15.5734 30.2478 15.04C29.7145 14.48 29.4478 13.8267 29.4478 13.08C29.4478 12.3067 29.7145 11.64 30.2478 11.08C30.8078 10.52 31.4745 10.24 32.2478 10.24C32.9945 10.24 33.6345 10.52 34.1678 11.08C34.7012 11.64 34.9678 12.3067 34.9678 13.08C34.9678 13.8267 34.7012 14.48 34.1678 15.04C33.6345 15.5734 32.9945 15.84 32.2478 15.84ZM25.3278 15.8C24.5545 15.8 23.8878 15.5334 23.3278 15C22.7945 14.44 22.5278 13.7867 22.5278 13.04C22.5278 12.2667 22.7945 11.6 23.3278 11.04C23.8878 10.48 24.5545 10.2 25.3278 10.2C26.0745 10.2 26.7145 10.48 27.2478 11.04C27.7812 11.6 28.0478 12.2667 28.0478 13.04C28.0478 13.7867 27.7812 14.44 27.2478 15C26.7145 15.5334 26.0745 15.8 25.3278 15.8ZM35.775 33.48L36.175 27.88C36.7884 27.88 37.3084 27.7334 37.735 27.44C38.1884 27.12 38.655 26.6 39.135 25.88C39.615 25.1334 40.175 24.1334 40.815 22.88C41.615 21.28 42.4417 20.0267 43.295 19.12C44.175 18.2134 45.0684 17.5734 45.975 17.2C46.9084 16.8 47.8417 16.6 48.775 16.6C49.9484 16.6 51.0417 16.8534 52.055 17.36C53.0684 17.8667 53.9484 18.56 54.695 19.44C55.4417 20.2934 56.015 21.28 56.415 22.4C56.8417 23.4934 57.055 24.6267 57.055 25.8C57.055 27.2134 56.7484 28.4934 56.135 29.64C55.5484 30.76 54.7217 31.6534 53.655 32.32C52.615 32.96 51.415 33.28 50.055 33.28C48.9084 33.28 47.575 33.08 46.055 32.68C44.535 32.28 42.935 31.44 41.255 30.16L43.295 25.32C44.495 26.1467 45.615 26.7467 46.655 27.12C47.7217 27.4934 48.6017 27.68 49.295 27.68C49.8284 27.68 50.2684 27.6267 50.615 27.52C50.9617 27.4134 51.215 27.24 51.375 27C51.535 26.76 51.615 26.44 51.615 26.04C51.615 25.48 51.4817 24.9067 51.215 24.32C50.9484 23.7334 50.5884 23.24 50.135 22.84C49.7084 22.4134 49.2017 22.2 48.615 22.2C48.055 22.2 47.575 22.4134 47.175 22.84C46.8017 23.24 46.4284 23.8267 46.055 24.6C45.7084 25.3467 45.2817 26.2267 44.775 27.24C44.1617 28.4667 43.5617 29.4934 42.975 30.32C42.3884 31.12 41.7617 31.76 41.095 32.24C40.455 32.6934 39.695 33.0134 38.815 33.2C37.9617 33.3867 36.9484 33.48 35.775 33.48ZM90.5541 33.48C88.6608 33.48 87.0208 33.24 85.6341 32.76C84.2741 32.2534 83.2208 31.4534 82.4741 30.36C81.7274 29.24 81.3008 27.7467 81.1941 25.88L80.4741 9.76003H86.1141L86.7941 23.92C86.8474 25.0134 87.0208 25.8534 87.3141 26.44C87.6341 27 88.0874 27.3867 88.6741 27.6C89.2608 27.7867 90.0208 27.88 90.9541 27.88C91.9674 27.88 92.6874 28.1467 93.1141 28.68C93.5408 29.1867 93.7541 29.8267 93.7541 30.6C93.7541 31.4267 93.4741 32.12 92.9141 32.68C92.3808 33.2134 91.5941 33.48 90.5541 33.48ZM83.2341 29.76C81.4474 30.16 79.7274 30.3467 78.0741 30.32C76.4208 30.2667 74.9408 29.9734 73.6341 29.44C72.3274 28.88 71.2874 28.08 70.5141 27.04C69.7674 26 69.3941 24.68 69.3941 23.08C69.3941 21.6667 69.7008 20.3867 70.3141 19.24C70.9541 18.0667 71.8341 17.04 72.9541 16.16C74.1008 15.28 75.4341 14.5334 76.9541 13.92C78.4741 13.3067 80.1274 12.84 81.9141 12.52L82.4741 18.2C81.3274 18.2534 80.2874 18.4134 79.3541 18.68C78.4474 18.92 77.6608 19.24 76.9941 19.64C76.3541 20.04 75.8608 20.4934 75.5141 21C75.1674 21.48 74.9941 22 74.9941 22.56C74.9941 23.0134 75.1541 23.3867 75.4741 23.68C75.7941 23.9734 76.2208 24.2134 76.7541 24.4C77.2874 24.56 77.9008 24.6534 78.5941 24.68C79.2874 24.7067 79.9941 24.6667 80.7141 24.56C81.4608 24.4534 82.1941 24.28 82.9141 24.04L83.2341 29.76ZM83.3541 5.64003C82.5808 5.64003 81.9141 5.37336 81.3541 4.84003C80.8208 4.28003 80.5541 3.62669 80.5541 2.88003C80.5541 2.10669 80.8208 1.44003 81.3541 0.880027C81.9141 0.320028 82.5808 0.0400281 83.3541 0.0400281C84.1008 0.0400281 84.7408 0.320028 85.2741 0.880027C85.8074 1.44003 86.0741 2.10669 86.0741 2.88003C86.0741 3.62669 85.8074 4.28003 85.2741 4.84003C84.7408 5.37336 84.1008 5.64003 83.3541 5.64003ZM76.4341 5.60003C75.6608 5.60003 74.9941 5.33336 74.4341 4.80003C73.9008 4.24003 73.6341 3.58669 73.6341 2.84003C73.6341 2.06669 73.9008 1.40003 74.4341 0.840027C74.9941 0.280028 75.6608 2.86102e-05 76.4341 2.86102e-05C77.1808 2.86102e-05 77.8208 0.280028 78.3541 0.840027C78.8874 1.40003 79.1541 2.06669 79.1541 2.84003C79.1541 3.58669 78.8874 4.24003 78.3541 4.80003C77.8208 5.33336 77.1808 5.60003 76.4341 5.60003ZM130.661 33.48C129.301 33.48 127.994 33.36 126.741 33.12C125.487 32.8534 124.354 32.5067 123.341 32.08C122.354 31.6534 121.541 31.1734 120.901 30.64L124.501 26.76C125.461 27.16 126.447 27.4534 127.461 27.64C128.474 27.8 129.674 27.88 131.061 27.88C132.074 27.88 132.794 28.1467 133.221 28.68C133.674 29.1867 133.901 29.8267 133.901 30.6C133.901 31.4267 133.621 32.12 133.061 32.68C132.501 33.2134 131.701 33.48 130.661 33.48ZM111.261 34C108.781 34 106.714 33.8934 105.061 33.68C103.434 33.4667 102.114 33.16 101.101 32.76C100.087 32.36 99.2873 31.88 98.7006 31.32C98.114 30.76 97.634 30.1467 97.2606 29.48L98.3806 29.16C97.714 30.44 96.954 31.3867 96.1006 32C95.2473 32.6134 94.354 33.0134 93.4206 33.2C92.4873 33.3867 91.5273 33.48 90.5406 33.48L90.9406 27.88C91.7673 27.88 92.4206 27.7467 92.9006 27.48C93.3806 27.2134 93.7673 26.7734 94.0606 26.16C94.3806 25.5467 94.674 24.7334 94.9406 23.72C95.2073 22.7067 95.5273 21.4667 95.9006 20L100.981 21.24C100.794 21.96 100.634 22.5867 100.501 23.12C100.394 23.6534 100.301 24.12 100.221 24.52C100.167 24.8934 100.141 25.2 100.141 25.44C100.141 25.9467 100.261 26.4 100.501 26.8C100.741 27.1734 101.207 27.48 101.901 27.72C102.594 27.9334 103.607 28.1067 104.941 28.24C106.301 28.3467 108.074 28.4 110.261 28.4C112.581 28.4 114.514 28.32 116.061 28.16C117.607 27.9734 118.834 27.72 119.741 27.4C120.674 27.0534 121.341 26.64 121.741 26.16C122.141 25.6534 122.341 25.08 122.341 24.44C122.341 23.9334 122.221 23.4667 121.981 23.04C121.767 22.5867 121.407 22.2134 120.901 21.92C120.394 21.6267 119.741 21.48 118.941 21.48C117.981 21.48 117.007 21.72 116.021 22.2C115.061 22.6534 114.114 23.2667 113.181 24.04C112.247 24.7867 111.354 25.6267 110.501 26.56C109.674 27.4934 108.927 28.4267 108.261 29.36L102.261 28.68C103.301 27 104.474 25.3867 105.781 23.84C107.087 22.2934 108.487 20.9334 109.981 19.76C111.474 18.56 113.021 17.6134 114.621 16.92C116.221 16.2267 117.847 15.88 119.501 15.88C121.287 15.88 122.807 16.2267 124.061 16.92C125.314 17.6134 126.274 18.5734 126.941 19.8C127.607 21.0267 127.941 22.44 127.941 24.04C127.941 25.9867 127.381 27.7067 126.261 29.2C125.167 30.6934 123.394 31.8667 120.941 32.72C118.514 33.5734 115.287 34 111.261 34ZM130.697 33.48L131.097 27.88C132.11 27.88 132.91 27.7867 133.497 27.6C134.11 27.4134 134.59 27.04 134.937 26.48C135.31 25.8934 135.617 25.04 135.857 23.92C136.124 22.8 136.39 21.3067 136.657 19.44L141.897 20.32C141.844 20.72 141.764 21.1867 141.657 21.72C141.577 22.2534 141.497 22.8 141.417 23.36C141.364 23.8934 141.337 24.4 141.337 24.88C141.337 25.52 141.47 26.0667 141.737 26.52C142.03 26.9467 142.537 27.28 143.257 27.52C144.004 27.76 145.07 27.88 146.457 27.88C147.47 27.88 148.19 28.1467 148.617 28.68C149.044 29.1867 149.257 29.8267 149.257 30.6C149.257 31.4267 148.977 32.12 148.417 32.68C147.884 33.2134 147.097 33.48 146.057 33.48C144.217 33.48 142.724 33.3067 141.577 32.96C140.43 32.6134 139.577 32.0267 139.017 31.2C138.457 30.3734 138.097 29.24 137.937 27.8H139.857C139.377 29.08 138.817 30.1067 138.177 30.88C137.537 31.6267 136.817 32.1867 136.017 32.56C135.217 32.9334 134.364 33.1734 133.457 33.28C132.577 33.4134 131.657 33.48 130.697 33.48ZM138.857 15.36C138.03 15.36 137.324 15.08 136.737 14.52C136.177 13.96 135.897 13.2667 135.897 12.44C135.897 11.6134 136.177 10.9067 136.737 10.32C137.324 9.73336 138.03 9.44003 138.857 9.44003C139.657 9.44003 140.337 9.73336 140.897 10.32C141.484 10.9067 141.777 11.6134 141.777 12.44C141.777 13.2667 141.484 13.96 140.897 14.52C140.337 15.08 139.657 15.36 138.857 15.36ZM146.048 33.48L146.448 27.88C147.062 27.88 147.582 27.7334 148.008 27.44C148.462 27.12 148.928 26.6 149.408 25.88C149.888 25.1334 150.448 24.1334 151.088 22.88C151.888 21.28 152.715 20.0267 153.568 19.12C154.448 18.2134 155.342 17.5734 156.248 17.2C157.182 16.8 158.115 16.6 159.048 16.6C160.222 16.6 161.315 16.8534 162.328 17.36C163.342 17.8667 164.222 18.56 164.968 19.44C165.715 20.2934 166.288 21.28 166.688 22.4C167.115 23.4934 167.328 24.6267 167.328 25.8C167.328 27.2134 167.022 28.4934 166.408 29.64C165.822 30.76 164.995 31.6534 163.928 32.32C162.888 32.96 161.688 33.28 160.328 33.28C159.182 33.28 157.848 33.08 156.328 32.68C154.808 32.28 153.208 31.44 151.528 30.16L153.568 25.32C154.768 26.1467 155.888 26.7467 156.928 27.12C157.995 27.4934 158.875 27.68 159.568 27.68C160.102 27.68 160.542 27.6267 160.888 27.52C161.235 27.4134 161.488 27.24 161.648 27C161.808 26.76 161.888 26.44 161.888 26.04C161.888 25.48 161.755 24.9067 161.488 24.32C161.222 23.7334 160.862 23.24 160.408 22.84C159.982 22.4134 159.475 22.2 158.888 22.2C158.328 22.2 157.848 22.4134 157.448 22.84C157.075 23.24 156.702 23.8267 156.328 24.6C155.982 25.3467 155.555 26.2267 155.048 27.24C154.435 28.4667 153.835 29.4934 153.248 30.32C152.662 31.12 152.035 31.76 151.368 32.24C150.728 32.6934 149.968 33.0134 149.088 33.2C148.235 33.3867 147.222 33.48 146.048 33.48Z" fill="white"/>
</svg>