<svg width="96" height="160" viewBox="0 0 96 160" fill="none" xmlns="http://www.w3.org/2000/svg">
    <path d="M38.2913 110.501H-3.02708H-7V159.5H36.1724C42.1053 159.288 42.7056 156.587 42.2642 155.262V116.063C42.4761 112.884 45.1777 111.03 46.502 110.501H86.496C91.7933 110.501 93.6473 106.793 93.9121 104.939V66.2688C93.7003 60.7597 89.7627 59.3825 87.8203 59.3826H55.7721C46.8728 58.535 44.1182 61.678 43.8534 63.3555V102.82C43.6415 108.965 40.057 110.501 38.2913 110.501Z" stroke="#DBDBDB"/>
    <path d="M39.6155 10.2606H-1.70286H-5.67578V59.2598H37.4966C43.4295 59.0479 44.0299 56.3464 43.5884 55.022V15.8226C43.8003 12.6442 46.5019 10.7903 47.8262 10.2606H87.8203C93.1175 10.2606 94.9715 6.55247 95.2364 4.6984V-33.9713C95.0245 -39.4805 91.0869 -40.8577 89.1446 -40.8576H57.0963C48.197 -41.7052 45.4424 -38.5622 45.1776 -36.8847V2.57963C44.9657 8.72441 41.3812 10.2606 39.6155 10.2606Z" stroke="#DBDBDB"/>
</svg>
