<svg width="151" height="20" viewBox="0 0 151 20" fill="none" xmlns="http://www.w3.org/2000/svg">
    <path d="M0.195312 12.2266C0.442708 11.8164 0.807292 11.6113 1.28906 11.6113C1.56901 11.6113 1.91406 11.6797 2.32422 11.8164C3.4375 12.2266 4.48568 12.4316 5.46875 12.4316C6.38672 12.4316 7.07031 12.3112 7.51953 12.0703C7.97526 11.8294 8.20312 11.429 8.20312 10.8691C8.20312 10.3809 7.98177 10 7.53906 9.72656C7.10286 9.45312 6.37695 9.20247 5.36133 8.97461C3.59049 8.59049 2.2819 8.05013 1.43555 7.35352C0.589193 6.65039 0.166016 5.7487 0.166016 4.64844C0.166016 3.42448 0.61849 2.4349 1.52344 1.67969C2.42839 0.924479 3.75326 0.546875 5.49805 0.546875C7.00195 0.546875 8.3431 0.745443 9.52148 1.14258C10.0358 1.31185 10.3613 1.52995 10.498 1.79688C10.6348 2.05729 10.7031 2.27214 10.7031 2.44141C10.7031 2.63021 10.651 2.82227 10.5469 3.01758C10.306 3.4668 9.89258 3.69141 9.30664 3.69141C9.05273 3.69141 8.75 3.64909 8.39844 3.56445C7.42839 3.30404 6.50065 3.17383 5.61523 3.17383C4.91211 3.17383 4.35221 3.29102 3.93555 3.52539C3.51888 3.75977 3.31055 4.1276 3.31055 4.62891C3.31055 5.08464 3.51562 5.43294 3.92578 5.67383C4.34245 5.91471 5.01953 6.14258 5.95703 6.35742C6.86198 6.55273 7.63021 6.77083 8.26172 7.01172C8.89323 7.2526 9.44987 7.54883 9.93164 7.90039C10.4134 8.25195 10.7682 8.67188 10.9961 9.16016C11.2305 9.64844 11.3477 10.2181 11.3477 10.8691C11.3477 11.4616 11.2533 11.9922 11.0645 12.4609C10.8757 12.9297 10.612 13.3268 10.2734 13.6523C9.9349 13.9714 9.52148 14.2383 9.0332 14.4531C8.55143 14.668 8.02409 14.821 7.45117 14.9121C6.87826 15.0098 6.25651 15.0586 5.58594 15.0586C3.88021 15.0586 2.35352 14.7721 1.00586 14.1992C0.686849 14.0625 0.439453 13.8802 0.263672 13.6523C0.0878906 13.4245 0 13.1901 0 12.9492C0 12.7083 0.0651042 12.4674 0.195312 12.2266ZM13.1836 9.77539C13.1836 9.04622 13.3008 8.36589 13.5352 7.73438C13.7695 7.09635 14.1048 6.53646 14.541 6.05469C14.9837 5.57292 15.5469 5.19206 16.2305 4.91211C16.9141 4.63216 17.679 4.49219 18.5254 4.49219C19.9902 4.49219 21.1979 4.91862 22.1484 5.77148C23.099 6.62435 23.6003 7.77669 23.6523 9.22852C23.6523 9.24154 23.6523 9.25456 23.6523 9.26758C23.6523 10.3548 23.1315 10.8984 22.0898 10.8984H16.1816C16.1947 11.4323 16.429 11.888 16.8848 12.2656C17.347 12.6367 17.9883 12.8223 18.8086 12.8223C19.6224 12.8223 20.3711 12.6823 21.0547 12.4023C21.3997 12.3047 21.6764 12.2559 21.8848 12.2559C22.2884 12.2559 22.5749 12.4219 22.7441 12.7539C22.8418 12.9297 22.8906 13.1022 22.8906 13.2715C22.8906 13.4147 22.8353 13.6003 22.7246 13.8281C22.6204 14.0495 22.347 14.248 21.9043 14.4238C20.9277 14.847 19.8014 15.0586 18.5254 15.0586C17.8158 15.0586 17.1647 14.9674 16.5723 14.7852C15.9863 14.5964 15.485 14.3392 15.0684 14.0137C14.6517 13.6882 14.3001 13.304 14.0137 12.8613C13.7272 12.4121 13.5156 11.9303 13.3789 11.416C13.2487 10.8952 13.1836 10.3483 13.1836 9.77539ZM16.1816 8.89648H20.8691C20.8301 8.28451 20.6087 7.77018 20.2051 7.35352C19.8014 6.93685 19.2415 6.72852 18.5254 6.72852C17.8092 6.72852 17.2493 6.9401 16.8457 7.36328C16.4421 7.77995 16.2207 8.29102 16.1816 8.89648ZM25.9863 0.410156C26.2402 0.136719 26.6081 0 27.0898 0C27.5651 0 27.9297 0.139974 28.1836 0.419922C28.4375 0.693359 28.5645 1.09049 28.5645 1.61133V11.748C28.5645 12.0345 28.5905 12.2331 28.6426 12.3438C28.6947 12.4544 28.8118 12.5098 28.9941 12.5098C29.5866 12.5098 29.8828 12.8516 29.8828 13.5352C29.8828 13.9128 29.7266 14.2188 29.4141 14.4531C29.1081 14.6875 28.6979 14.8047 28.1836 14.8047C27.7539 14.8047 27.3796 14.7428 27.0605 14.6191C26.7415 14.4889 26.4909 14.3262 26.3086 14.1309C26.1263 13.9355 25.9798 13.6914 25.8691 13.3984C25.765 13.1055 25.6934 12.819 25.6543 12.5391C25.6217 12.2591 25.6055 11.9434 25.6055 11.5918V1.61133C25.6055 1.09049 25.7324 0.690104 25.9863 0.410156ZM31.25 9.77539C31.25 9.04622 31.3672 8.36589 31.6016 7.73438C31.8359 7.09635 32.1712 6.53646 32.6074 6.05469C33.0501 5.57292 33.6133 5.19206 34.2969 4.91211C34.9805 4.63216 35.7454 4.49219 36.5918 4.49219C38.0566 4.49219 39.2643 4.91862 40.2148 5.77148C41.1654 6.62435 41.6667 7.77669 41.7188 9.22852C41.7188 9.24154 41.7188 9.25456 41.7188 9.26758C41.7188 10.3548 41.1979 10.8984 40.1562 10.8984H34.248C34.2611 11.4323 34.4954 11.888 34.9512 12.2656C35.4134 12.6367 36.0547 12.8223 36.875 12.8223C37.6888 12.8223 38.4375 12.6823 39.1211 12.4023C39.4661 12.3047 39.7428 12.2559 39.9512 12.2559C40.3548 12.2559 40.6413 12.4219 40.8105 12.7539C40.9082 12.9297 40.957 13.1022 40.957 13.2715C40.957 13.4147 40.9017 13.6003 40.791 13.8281C40.6868 14.0495 40.4134 14.248 39.9707 14.4238C38.9941 14.847 37.8678 15.0586 36.5918 15.0586C35.8822 15.0586 35.2311 14.9674 34.6387 14.7852C34.0527 14.5964 33.5514 14.3392 33.1348 14.0137C32.7181 13.6882 32.3665 13.304 32.0801 12.8613C31.7936 12.4121 31.582 11.9303 31.4453 11.416C31.3151 10.8952 31.25 10.3483 31.25 9.77539ZM34.248 8.89648H38.9355C38.8965 8.28451 38.6751 7.77018 38.2715 7.35352C37.8678 6.93685 37.3079 6.72852 36.5918 6.72852C35.8757 6.72852 35.3158 6.9401 34.9121 7.36328C34.5085 7.77995 34.2871 8.29102 34.248 8.89648ZM44.873 5.91797C45.9277 4.96745 47.3503 4.49219 49.1406 4.49219C50.1172 4.49219 51.0384 4.68099 51.9043 5.05859C52.2233 5.1888 52.4609 5.35482 52.6172 5.55664C52.7734 5.75846 52.8516 5.96354 52.8516 6.17188C52.8516 6.17188 52.8483 6.22721 52.8418 6.33789C52.8418 6.44206 52.7767 6.59505 52.6465 6.79688C52.4447 7.11589 52.1289 7.27539 51.6992 7.27539C51.4323 7.27539 51.071 7.21029 50.6152 7.08008C50.1074 6.88477 49.6159 6.78711 49.1406 6.78711C48.2552 6.78711 47.5553 7.06055 47.041 7.60742C46.5267 8.14779 46.2695 8.87044 46.2695 9.77539C46.2695 10.6803 46.5267 11.4062 47.041 11.9531C47.5553 12.4935 48.2552 12.7637 49.1406 12.7637C49.6159 12.7637 50.1074 12.666 50.6152 12.4707C51.071 12.3405 51.4323 12.2754 51.6992 12.2754C52.1289 12.2754 52.4447 12.4349 52.6465 12.7539C52.7767 12.9557 52.8418 13.112 52.8418 13.2227C52.8483 13.3268 52.8516 13.3789 52.8516 13.3789C52.8516 13.5872 52.7734 13.7923 52.6172 13.9941C52.4609 14.196 52.2233 14.362 51.9043 14.4922C51.0384 14.8698 50.1172 15.0586 49.1406 15.0586C47.3503 15.0586 45.9245 14.5833 44.8633 13.6328C43.8086 12.6758 43.2812 11.39 43.2812 9.77539C43.2812 8.16081 43.8118 6.875 44.873 5.91797ZM54.2578 5.88867C54.2578 5.52409 54.362 5.24414 54.5703 5.04883C54.7852 4.84701 55.0781 4.74609 55.4492 4.74609H56.1328V3.45703C56.1328 2.9362 56.2598 2.53906 56.5137 2.26562C56.7676 1.99219 57.1354 1.85547 57.6172 1.85547C58.099 1.85547 58.4635 1.99219 58.7109 2.26562C58.9648 2.53906 59.0918 2.9362 59.0918 3.45703V4.74609H60.6543C61.0189 4.74609 61.3086 4.84701 61.5234 5.04883C61.7383 5.24414 61.8457 5.52409 61.8457 5.88867C61.8457 6.25326 61.7383 6.53646 61.5234 6.73828C61.3151 6.9401 61.0254 7.04102 60.6543 7.04102H59.0918V10.4395C59.0918 11.3379 59.1764 11.9596 59.3457 12.3047C59.5215 12.6497 59.8861 12.8223 60.4395 12.8223H60.9082C61.5397 12.8548 61.8945 13.1217 61.9727 13.623C61.9857 13.7012 61.9922 13.7728 61.9922 13.8379C61.9922 14.1048 61.8913 14.3392 61.6895 14.541C61.4941 14.7428 61.1784 14.8861 60.7422 14.9707C60.5078 15.0293 60.2539 15.0586 59.9805 15.0586C59.3685 15.0586 58.8411 14.9935 58.3984 14.8633C57.9557 14.7331 57.5879 14.5508 57.2949 14.3164C57.002 14.0755 56.7676 13.7598 56.5918 13.3691C56.4225 12.972 56.3021 12.5391 56.2305 12.0703C56.1654 11.5951 56.1328 11.0319 56.1328 10.3809V7.04102H55.4492C55.0781 7.04102 54.7884 6.9401 54.5801 6.73828C54.3652 6.53646 54.2578 6.25326 54.2578 5.88867ZM69.4922 4.96094C69.7982 4.09505 70.2507 3.33333 70.8496 2.67578C71.4486 2.01172 72.2201 1.49089 73.1641 1.11328C74.1146 0.735677 75.1921 0.546875 76.3965 0.546875C77.985 0.546875 79.3587 0.823568 80.5176 1.37695C80.9798 1.59831 81.2467 1.83594 81.3184 2.08984C81.39 2.34375 81.4258 2.52604 81.4258 2.63672C81.4258 2.88411 81.3444 3.11849 81.1816 3.33984C80.9408 3.70443 80.5957 3.88672 80.1465 3.88672C79.847 3.88672 79.4824 3.80859 79.0527 3.65234C78.1868 3.33333 77.3014 3.17383 76.3965 3.17383C75.8236 3.17383 75.2995 3.25521 74.8242 3.41797C74.3555 3.58073 73.9583 3.80534 73.6328 4.0918C73.3073 4.37826 73.0339 4.72005 72.8125 5.11719C72.5911 5.50781 72.4284 5.92773 72.3242 6.37695C72.2266 6.82617 72.1777 7.30143 72.1777 7.80273C72.1777 8.30404 72.2266 8.7793 72.3242 9.22852C72.4284 9.67773 72.5911 10.1009 72.8125 10.498C73.0339 10.8887 73.3073 11.2272 73.6328 11.5137C73.9583 11.8001 74.3555 12.0247 74.8242 12.1875C75.2995 12.3503 75.8236 12.4316 76.3965 12.4316C77.3014 12.4316 78.1868 12.2721 79.0527 11.9531C79.4824 11.7969 79.847 11.7188 80.1465 11.7188C80.5957 11.7188 80.9408 11.901 81.1816 12.2656C81.3444 12.487 81.4258 12.7214 81.4258 12.9688C81.4258 13.0794 81.39 13.2617 81.3184 13.5156C81.2467 13.7695 80.9798 14.0072 80.5176 14.2285C79.3587 14.7819 77.985 15.0586 76.3965 15.0586C75.1921 15.0586 74.1146 14.8698 73.1641 14.4922C72.2201 14.1146 71.4486 13.597 70.8496 12.9395C70.2507 12.2754 69.7949 11.5104 69.4824 10.6445C69.1764 9.77214 69.0234 8.82487 69.0234 7.80273C69.0234 6.7806 69.1797 5.83333 69.4922 4.96094ZM83.0469 9.77539C83.0469 8.17383 83.5872 6.89453 84.668 5.9375C85.7487 4.97396 87.1615 4.49219 88.9062 4.49219C90.651 4.49219 92.0605 4.97396 93.1348 5.9375C94.2155 6.89453 94.7559 8.17383 94.7559 9.77539C94.7559 11.377 94.2155 12.6595 93.1348 13.623C92.0605 14.5801 90.651 15.0586 88.9062 15.0586C87.1615 15.0586 85.7487 14.5768 84.668 13.6133C83.5872 12.6562 83.0469 11.377 83.0469 9.77539ZM86.7969 11.9434C87.2982 12.4902 88.0013 12.7637 88.9062 12.7637C89.7852 12.7637 90.4818 12.4902 90.9961 11.9434C91.5104 11.39 91.7676 10.6673 91.7676 9.77539C91.7676 8.88346 91.5104 8.16406 90.9961 7.61719C90.4818 7.0638 89.7852 6.78711 88.9062 6.78711C88.0013 6.78711 87.2982 7.06055 86.7969 7.60742C86.2891 8.1543 86.0352 8.87695 86.0352 9.77539C86.0352 10.6738 86.2891 11.3965 86.7969 11.9434ZM96.7188 6.34766C96.7188 5.82682 96.8424 5.42969 97.0898 5.15625C97.3438 4.88281 97.7116 4.74609 98.1934 4.74609C98.6751 4.74609 99.043 4.88281 99.2969 5.15625C99.5508 5.42969 99.6777 5.82682 99.6777 6.34766V10.3223C99.6777 11.9499 100.4 12.7637 101.846 12.7637C103.278 12.7637 103.994 11.9499 103.994 10.3223V6.34766C103.994 5.82682 104.121 5.42969 104.375 5.15625C104.629 4.88281 104.997 4.74609 105.479 4.74609C105.96 4.74609 106.328 4.88281 106.582 5.15625C106.836 5.42969 106.963 5.82682 106.963 6.34766V13.1934C106.963 13.7142 106.836 14.1146 106.582 14.3945C106.328 14.668 105.96 14.8047 105.479 14.8047C105.023 14.8047 104.697 14.6875 104.502 14.4531C104.307 14.2188 104.163 13.8639 104.072 13.3887C103.864 13.8249 103.509 14.2122 103.008 14.5508C102.513 14.8893 101.911 15.0586 101.201 15.0586C99.7428 15.0586 98.6296 14.6387 97.8613 13.7988C97.0996 12.959 96.7188 11.8001 96.7188 10.3223V6.34766ZM109.316 13.2031V6.35742C109.316 5.83659 109.443 5.43945 109.697 5.16602C109.951 4.88607 110.319 4.74609 110.801 4.74609C111.445 4.74609 111.868 5.00651 112.07 5.52734C112.142 5.84635 112.184 6.05469 112.197 6.15234C112.419 5.72266 112.777 5.33854 113.271 5C113.766 4.66146 114.368 4.49219 115.078 4.49219C116.536 4.49219 117.646 4.91211 118.408 5.75195C119.176 6.5918 119.561 7.75065 119.561 9.22852V13.2031C119.561 13.724 119.434 14.1211 119.18 14.3945C118.932 14.668 118.568 14.8047 118.086 14.8047C117.604 14.8047 117.236 14.668 116.982 14.3945C116.729 14.1211 116.602 13.724 116.602 13.2031V9.22852C116.602 7.60091 115.879 6.78711 114.434 6.78711C112.995 6.78711 112.275 7.60091 112.275 9.22852V13.2031C112.275 13.724 112.148 14.1211 111.895 14.3945C111.647 14.668 111.283 14.8047 110.801 14.8047C110.319 14.8047 109.951 14.668 109.697 14.3945C109.443 14.1211 109.316 13.724 109.316 13.2031ZM121.328 5.88867C121.328 5.52409 121.432 5.24414 121.641 5.04883C121.855 4.84701 122.148 4.74609 122.52 4.74609H123.203V3.45703C123.203 2.9362 123.33 2.53906 123.584 2.26562C123.838 1.99219 124.206 1.85547 124.688 1.85547C125.169 1.85547 125.534 1.99219 125.781 2.26562C126.035 2.53906 126.162 2.9362 126.162 3.45703V4.74609H127.725C128.089 4.74609 128.379 4.84701 128.594 5.04883C128.809 5.24414 128.916 5.52409 128.916 5.88867C128.916 6.25326 128.809 6.53646 128.594 6.73828C128.385 6.9401 128.096 7.04102 127.725 7.04102H126.162V10.4395C126.162 11.3379 126.247 11.9596 126.416 12.3047C126.592 12.6497 126.956 12.8223 127.51 12.8223H127.979C128.61 12.8548 128.965 13.1217 129.043 13.623C129.056 13.7012 129.062 13.7728 129.062 13.8379C129.062 14.1048 128.962 14.3392 128.76 14.541C128.564 14.7428 128.249 14.8861 127.812 14.9707C127.578 15.0293 127.324 15.0586 127.051 15.0586C126.439 15.0586 125.911 14.9935 125.469 14.8633C125.026 14.7331 124.658 14.5508 124.365 14.3164C124.072 14.0755 123.838 13.7598 123.662 13.3691C123.493 12.972 123.372 12.5391 123.301 12.0703C123.236 11.5951 123.203 11.0319 123.203 10.3809V7.04102H122.52C122.148 7.04102 121.859 6.9401 121.65 6.73828C121.436 6.53646 121.328 6.25326 121.328 5.88867ZM130.996 6.35742C130.996 5.83659 131.123 5.43945 131.377 5.16602C131.631 4.88607 131.999 4.74609 132.48 4.74609C133.145 4.74609 133.574 5.01302 133.77 5.54688C133.789 5.60547 133.809 5.70638 133.828 5.84961C133.848 5.98633 133.857 6.0612 133.857 6.07422C134.053 5.67708 134.391 5.31576 134.873 4.99023C135.355 4.6582 135.944 4.49219 136.641 4.49219C136.895 4.49219 137.178 4.51823 137.49 4.57031C137.842 4.60938 138.122 4.72005 138.33 4.90234C138.545 5.07812 138.656 5.23112 138.662 5.36133C138.669 5.48503 138.672 5.5599 138.672 5.58594C138.672 5.79427 138.623 6.0026 138.525 6.21094C138.382 6.46484 138.213 6.64062 138.018 6.73828C137.829 6.82943 137.598 6.875 137.324 6.875C137.259 6.875 136.982 6.85872 136.494 6.82617C136.351 6.80013 136.227 6.78711 136.123 6.78711C135.387 6.78711 134.844 7.00846 134.492 7.45117C134.141 7.89388 133.965 8.50586 133.965 9.28711V13.2031C133.965 13.724 133.838 14.1211 133.584 14.3945C133.33 14.668 132.962 14.8047 132.48 14.8047C131.999 14.8047 131.631 14.668 131.377 14.3945C131.123 14.1211 130.996 13.724 130.996 13.2031V6.35742ZM140.039 5.71289C140.13 5.26367 140.413 4.96094 140.889 4.80469C141.097 4.73958 141.27 4.70703 141.406 4.70703C142.051 4.70703 142.539 5.14974 142.871 6.03516L145.029 11.543L147.178 6.03516C147.51 5.14974 148.001 4.70703 148.652 4.70703C148.789 4.70703 148.962 4.73958 149.17 4.80469C149.639 4.96094 149.902 5.18229 149.961 5.46875C150.026 5.75521 150.059 5.96354 150.059 6.09375C150.059 6.43229 149.967 6.78711 149.785 7.1582L145.273 17.6562C144.967 18.3724 144.603 18.9225 144.18 19.3066C143.757 19.6973 143.187 19.9186 142.471 19.9707C142.34 19.9772 142.217 19.9805 142.1 19.9805C141.937 19.9805 141.781 19.974 141.631 19.9609C141.13 19.9349 140.739 19.8079 140.459 19.5801C140.186 19.3522 140.049 19.0918 140.049 18.7988C140.049 18.6947 140.065 18.5807 140.098 18.457C140.241 17.9427 140.648 17.6855 141.318 17.6855C141.364 17.6855 141.413 17.6855 141.465 17.6855C141.53 17.6986 141.602 17.7051 141.68 17.7051C141.732 17.7051 141.784 17.7018 141.836 17.6953C141.999 17.6758 142.139 17.627 142.256 17.5488C142.38 17.4772 142.49 17.3633 142.588 17.207C142.686 17.0508 142.76 16.9076 142.812 16.7773C142.871 16.6536 142.949 16.4648 143.047 16.2109L143.584 14.8828L140.264 7.1582C140.088 6.78711 140 6.43555 140 6.10352C140 5.97331 140.013 5.8431 140.039 5.71289Z" fill="black"/>
</svg>