<svg width="252" height="26" viewBox="0 0 252 26" fill="none" xmlns="http://www.w3.org/2000/svg">
    <path d="M0.128906 4.30005C0.332031 3.72192 0.789062 3.34302 1.5 3.16333C1.71094 3.10864 1.92578 3.0813 2.14453 3.0813C3.16797 3.0813 3.875 3.72974 4.26562 5.02661L6.66797 12.9016L8.89453 5.08521C9.25391 3.80396 9.96484 3.16333 11.0273 3.16333C12.0977 3.16333 12.8125 3.80396 13.1719 5.08521L15.3984 12.9016L17.8008 5.02661C18.1914 3.72974 18.8984 3.0813 19.9219 3.0813C20.1406 3.0813 20.3555 3.10864 20.5664 3.16333C21.2695 3.34302 21.6953 3.63989 21.8438 4.05396C21.9922 4.46021 22.0664 4.80396 22.0664 5.08521C22.0664 5.46802 21.9844 5.88208 21.8203 6.32739L17.7773 18.1399C17.3555 19.3586 16.5898 19.968 15.4805 19.968C14.3711 19.968 13.6328 19.3352 13.2656 18.0696L11.0273 10.218L8.80078 18.0696C8.43359 19.3352 7.69531 19.968 6.58594 19.968C5.46875 19.968 4.70312 19.3586 4.28906 18.1399L0.246094 6.32739C0.0820312 5.88208 0 5.46802 0 5.08521C0 4.80396 0.0429688 4.54224 0.128906 4.30005ZM21.9375 13.886C21.9375 13.0188 22.082 12.2024 22.3711 11.4368C22.6602 10.6711 23.0742 9.99146 23.6133 9.39771C24.1523 8.80396 24.8516 8.33521 25.7109 7.99146C26.5703 7.64771 27.5312 7.47583 28.5938 7.47583C30.4062 7.47583 31.9023 7.99146 33.082 9.02271C34.2695 10.0461 34.8789 11.3977 34.9102 13.0774C34.9102 13.093 34.9102 13.1086 34.9102 13.1243C34.9102 14.6555 34.1836 15.4211 32.7305 15.4211H26.0977C26.1055 15.8977 26.3633 16.3196 26.8711 16.6868C27.3789 17.054 28.1055 17.2375 29.0508 17.2375C29.8945 17.2375 30.7461 17.1047 31.6055 16.8391C32.0352 16.7375 32.3906 16.6868 32.6719 16.6868C33.25 16.6868 33.6562 16.9211 33.8906 17.3899C34.0078 17.6165 34.0664 17.8391 34.0664 18.0579C34.0664 18.2532 33.9883 18.5032 33.832 18.8079C33.6836 19.1125 33.3047 19.3782 32.6953 19.6047C31.4844 20.0657 30.1172 20.2961 28.5938 20.2961C27.4766 20.2961 26.4805 20.1204 25.6055 19.7688C24.7383 19.4172 24.043 18.9407 23.5195 18.3391C22.9961 17.7375 22.6016 17.0618 22.3359 16.3118C22.0703 15.554 21.9375 14.7454 21.9375 13.886ZM26.0977 12.7258H31.0898C31.0742 12.1321 30.8516 11.6165 30.4219 11.179C29.9844 10.7493 29.375 10.5344 28.5938 10.5344C27.8125 10.5344 27.2031 10.7532 26.7656 11.1907C26.3359 11.6204 26.1133 12.1321 26.0977 12.7258ZM37.5703 2.77661C37.9219 2.3938 38.4336 2.20239 39.1055 2.20239C39.7773 2.20239 40.2891 2.3938 40.6406 2.77661C40.9922 3.15942 41.168 3.71802 41.168 4.45239V15.9719C41.168 16.3079 41.1953 16.5344 41.25 16.6516C41.3125 16.761 41.4531 16.8157 41.6719 16.8157C42.4453 16.8157 42.832 17.2766 42.832 18.1985C42.832 18.7141 42.6094 19.1399 42.1641 19.4758C41.7188 19.804 41.1211 19.968 40.3711 19.968C39.8164 19.968 39.332 19.886 38.918 19.7219C38.5117 19.5579 38.1914 19.3469 37.957 19.0891C37.7227 18.8313 37.5312 18.511 37.3828 18.1282C37.2422 17.7375 37.1484 17.3586 37.1016 16.9915C37.0547 16.6165 37.0312 16.1946 37.0312 15.7258V4.45239C37.0312 3.71802 37.2109 3.15942 37.5703 2.77661ZM46.207 9.18677C47.5195 8.04614 49.2969 7.47583 51.5391 7.47583C52.6953 7.47583 53.7695 7.67896 54.7617 8.08521C55.0977 8.21021 55.3711 8.37036 55.582 8.56567C55.8008 8.76099 55.9375 8.95239 55.9922 9.13989C56.0547 9.31958 56.0859 9.48364 56.0859 9.63208C56.0859 9.69458 56.0742 9.80005 56.0508 9.94849C56.0352 10.0891 55.9648 10.261 55.8398 10.4641C55.5664 10.8938 55.1328 11.1086 54.5391 11.1086C54.1875 11.1086 53.6758 11.0266 53.0039 10.8625C52.5195 10.7063 52.0312 10.6282 51.5391 10.6282C50.5781 10.6282 49.8086 10.9211 49.2305 11.5071C48.6602 12.0852 48.375 12.8782 48.375 13.886C48.375 14.8938 48.6602 15.6907 49.2305 16.2766C49.8086 16.8547 50.5781 17.1438 51.5391 17.1438C52.0312 17.1438 52.5195 17.0657 53.0039 16.9094C53.6758 16.7454 54.1875 16.6633 54.5391 16.6633C55.1328 16.6633 55.5664 16.8782 55.8398 17.3079C55.9648 17.511 56.0352 17.6868 56.0508 17.8352C56.0742 17.9758 56.0859 18.0774 56.0859 18.1399C56.0859 18.2883 56.0547 18.4563 55.9922 18.6438C55.9375 18.8235 55.8008 19.011 55.582 19.2063C55.3711 19.4016 55.0977 19.5618 54.7617 19.6868C53.7695 20.093 52.6953 20.2961 51.5391 20.2961C49.2969 20.2961 47.5156 19.7258 46.1953 18.5852C44.8828 17.4368 44.2266 15.8704 44.2266 13.886C44.2266 11.9016 44.8867 10.3352 46.207 9.18677ZM57.4688 13.886C57.4688 11.9172 58.1445 10.3586 59.4961 9.21021C60.8477 8.05396 62.6133 7.47583 64.793 7.47583C66.9648 7.47583 68.7266 8.05396 70.0781 9.21021C71.4297 10.3586 72.1055 11.9172 72.1055 13.886C72.1055 15.8547 71.4297 17.4172 70.0781 18.5735C68.7266 19.7219 66.9648 20.2961 64.793 20.2961C62.6133 20.2961 60.8477 19.718 59.4961 18.5618C58.1445 17.4133 57.4688 15.8547 57.4688 13.886ZM62.4609 16.2532C63.0234 16.8469 63.8008 17.1438 64.793 17.1438C65.7461 17.1438 66.5117 16.8469 67.0898 16.2532C67.668 15.6516 67.957 14.8625 67.957 13.886C67.957 12.9094 67.668 12.1243 67.0898 11.5305C66.5117 10.929 65.7461 10.6282 64.793 10.6282C63.8008 10.6282 63.0234 10.925 62.4609 11.5188C61.8984 12.1125 61.6172 12.9016 61.6172 13.886C61.6172 14.8704 61.8984 15.6594 62.4609 16.2532ZM74.2266 17.718V10.0657C74.2266 9.3313 74.4023 8.77271 74.7539 8.38989C75.1133 7.99927 75.6289 7.80396 76.3008 7.80396C77.043 7.80396 77.5898 8.07739 77.9414 8.62427C77.9492 8.63208 78.0273 8.81177 78.1758 9.16333C78.4492 8.70239 78.8711 8.30786 79.4414 7.97974C80.0117 7.6438 80.6719 7.47583 81.4219 7.47583C83.2344 7.47583 84.5469 8.12036 85.3594 9.40942C85.75 8.87817 86.2812 8.42505 86.9531 8.05005C87.6328 7.66724 88.4336 7.47583 89.3555 7.47583C90.9336 7.47583 92.1406 7.98364 92.9766 8.99927C93.8125 10.0149 94.2305 11.4016 94.2305 13.1594V17.718C94.2305 18.4524 94.0547 19.011 93.7031 19.3938C93.3516 19.7766 92.8398 19.968 92.168 19.968C91.4961 19.968 90.9805 19.7766 90.6211 19.3938C90.2695 19.011 90.0938 18.4524 90.0938 17.718V12.8782C90.0938 12.2219 89.9414 11.6829 89.6367 11.261C89.3398 10.8391 88.8633 10.6282 88.207 10.6282C87.5352 10.6282 87.0469 10.8391 86.7422 11.261C86.4453 11.6829 86.2969 12.2219 86.2969 12.8782V17.718C86.2969 18.4524 86.1211 19.011 85.7695 19.3938C85.418 19.7766 84.9062 19.968 84.2344 19.968C83.5625 19.968 83.0469 19.7766 82.6875 19.3938C82.3359 19.011 82.1602 18.4524 82.1602 17.718V12.8782C82.1602 12.2219 82.0078 11.6829 81.7031 11.261C81.4062 10.8391 80.9258 10.6282 80.2617 10.6282C79.5977 10.6282 79.1133 10.8391 78.8086 11.261C78.5117 11.6829 78.3633 12.2219 78.3633 12.8782V17.718C78.3633 18.4524 78.1875 19.011 77.8359 19.3938C77.4844 19.7766 76.9727 19.968 76.3008 19.968C75.6289 19.968 75.1133 19.7766 74.7539 19.3938C74.4023 19.011 74.2266 18.4524 74.2266 17.718ZM96.3516 13.886C96.3516 13.0188 96.4961 12.2024 96.7852 11.4368C97.0742 10.6711 97.4883 9.99146 98.0273 9.39771C98.5664 8.80396 99.2656 8.33521 100.125 7.99146C100.984 7.64771 101.945 7.47583 103.008 7.47583C104.82 7.47583 106.316 7.99146 107.496 9.02271C108.684 10.0461 109.293 11.3977 109.324 13.0774C109.324 13.093 109.324 13.1086 109.324 13.1243C109.324 14.6555 108.598 15.4211 107.145 15.4211H100.512C100.52 15.8977 100.777 16.3196 101.285 16.6868C101.793 17.054 102.52 17.2375 103.465 17.2375C104.309 17.2375 105.16 17.1047 106.02 16.8391C106.449 16.7375 106.805 16.6868 107.086 16.6868C107.664 16.6868 108.07 16.9211 108.305 17.3899C108.422 17.6165 108.48 17.8391 108.48 18.0579C108.48 18.2532 108.402 18.5032 108.246 18.8079C108.098 19.1125 107.719 19.3782 107.109 19.6047C105.898 20.0657 104.531 20.2961 103.008 20.2961C101.891 20.2961 100.895 20.1204 100.02 19.7688C99.1523 19.4172 98.457 18.9407 97.9336 18.3391C97.4102 17.7375 97.0156 17.0618 96.75 16.3118C96.4844 15.554 96.3516 14.7454 96.3516 13.886ZM100.512 12.7258H105.504C105.488 12.1321 105.266 11.6165 104.836 11.179C104.398 10.7493 103.789 10.5344 103.008 10.5344C102.227 10.5344 101.617 10.7532 101.18 11.1907C100.75 11.6204 100.527 12.1321 100.512 12.7258ZM117.07 4.97974C117.07 4.3938 117.262 3.94458 117.645 3.63208C118.027 3.31958 118.586 3.16333 119.32 3.16333H130.301C131.035 3.16333 131.594 3.31958 131.977 3.63208C132.359 3.94458 132.551 4.3938 132.551 4.97974C132.551 5.56567 132.359 6.01489 131.977 6.32739C131.594 6.63989 131.035 6.79614 130.301 6.79614H126.984V17.7063C126.984 18.4407 126.797 19.0032 126.422 19.3938C126.055 19.7766 125.52 19.968 124.816 19.968C124.113 19.968 123.574 19.7766 123.199 19.3938C122.824 19.0032 122.637 18.4407 122.637 17.7063V6.79614H119.32C118.586 6.79614 118.027 6.63989 117.645 6.32739C117.262 6.01489 117.07 5.56567 117.07 4.97974ZM130.547 13.886C130.547 11.9172 131.223 10.3586 132.574 9.21021C133.926 8.05396 135.691 7.47583 137.871 7.47583C140.043 7.47583 141.805 8.05396 143.156 9.21021C144.508 10.3586 145.184 11.9172 145.184 13.886C145.184 15.8547 144.508 17.4172 143.156 18.5735C141.805 19.7219 140.043 20.2961 137.871 20.2961C135.691 20.2961 133.926 19.718 132.574 18.5618C131.223 17.4133 130.547 15.8547 130.547 13.886ZM135.539 16.2532C136.102 16.8469 136.879 17.1438 137.871 17.1438C138.824 17.1438 139.59 16.8469 140.168 16.2532C140.746 15.6516 141.035 14.8625 141.035 13.886C141.035 12.9094 140.746 12.1243 140.168 11.5305C139.59 10.929 138.824 10.6282 137.871 10.6282C136.879 10.6282 136.102 10.925 135.539 11.5188C134.977 12.1125 134.695 12.9016 134.695 13.886C134.695 14.8704 134.977 15.6594 135.539 16.2532Z" fill="black"/>
    <path d="M152.634 25.512L151.41 22.536C152.258 22.248 153.034 21.912 153.738 21.528C154.458 21.144 155.082 20.72 155.61 20.256C156.138 19.792 156.546 19.288 156.834 18.744C157.122 18.184 157.266 17.584 157.266 16.944C157.266 16.272 157.114 15.536 156.81 14.736C156.506 13.936 156.138 13.12 155.706 12.288L158.85 10.776C159.138 11.272 159.386 11.808 159.594 12.384C159.818 12.944 160.002 13.448 160.146 13.896C160.29 14.344 160.386 14.648 160.434 14.808C160.658 15.576 160.962 16.088 161.346 16.344C161.746 16.6 162.386 16.728 163.266 16.728C163.874 16.728 164.306 16.888 164.562 17.208C164.834 17.512 164.97 17.896 164.97 18.36C164.97 18.856 164.802 19.272 164.466 19.608C164.13 19.928 163.65 20.088 163.026 20.088C162.37 20.088 161.794 19.992 161.298 19.8C160.802 19.608 160.402 19.328 160.098 18.96C159.81 18.592 159.626 18.16 159.546 17.664L160.434 18.168C160.338 19.016 160.058 19.816 159.594 20.568C159.146 21.336 158.562 22.04 157.842 22.68C157.122 23.32 156.314 23.88 155.418 24.36C154.522 24.84 153.594 25.224 152.634 25.512ZM163.055 20.088L163.295 16.728C163.871 16.728 164.367 16.672 164.783 16.56C165.199 16.448 165.551 16.224 165.839 15.888C166.127 15.536 166.367 15.024 166.559 14.352C166.767 13.68 166.951 12.784 167.111 11.664L170.255 12.192C170.223 12.432 170.175 12.712 170.111 13.032C170.063 13.352 170.015 13.68 169.967 14.016C169.935 14.336 169.919 14.64 169.919 14.928C169.919 15.216 169.975 15.472 170.087 15.696C170.199 15.92 170.375 16.112 170.615 16.272C170.871 16.416 171.199 16.528 171.599 16.608C172.015 16.688 172.519 16.728 173.111 16.728C173.719 16.728 174.151 16.888 174.407 17.208C174.663 17.512 174.791 17.896 174.791 18.36C174.791 18.856 174.623 19.272 174.287 19.608C173.967 19.928 173.495 20.088 172.871 20.088C172.151 20.088 171.495 20.032 170.903 19.92C170.327 19.808 169.823 19.624 169.391 19.368C168.975 19.096 168.631 18.744 168.359 18.312C168.103 17.864 167.943 17.32 167.879 16.68H169.031C168.743 17.448 168.375 18.064 167.927 18.528C167.495 18.976 167.007 19.312 166.463 19.536C165.919 19.76 165.351 19.904 164.759 19.968C164.183 20.048 163.615 20.088 163.055 20.088ZM170.759 9.50402C170.295 9.50402 169.895 9.34402 169.559 9.02402C169.239 8.68802 169.079 8.29602 169.079 7.84802C169.079 7.38402 169.239 6.98402 169.559 6.64802C169.895 6.31202 170.295 6.14402 170.759 6.14402C171.207 6.14402 171.591 6.31202 171.911 6.64802C172.231 6.98402 172.391 7.38402 172.391 7.84802C172.391 8.29602 172.231 8.68802 171.911 9.02402C171.591 9.34402 171.207 9.50402 170.759 9.50402ZM166.607 9.48002C166.143 9.48002 165.743 9.32002 165.407 9.00002C165.087 8.66402 164.927 8.27202 164.927 7.82402C164.927 7.36002 165.087 6.96002 165.407 6.62402C165.743 6.28802 166.143 6.12002 166.607 6.12002C167.055 6.12002 167.439 6.28802 167.759 6.62402C168.079 6.96002 168.239 7.36002 168.239 7.82402C168.239 8.27202 168.079 8.66402 167.759 9.00002C167.439 9.32002 167.055 9.48002 166.607 9.48002ZM172.875 20.088L173.115 16.728C173.483 16.728 173.795 16.64 174.051 16.464C174.323 16.272 174.603 15.96 174.891 15.528C175.179 15.08 175.515 14.48 175.899 13.728C176.379 12.768 176.875 12.016 177.387 11.472C177.915 10.928 178.451 10.544 178.995 10.32C179.555 10.08 180.115 9.96002 180.675 9.96002C181.379 9.96002 182.035 10.112 182.643 10.416C183.251 10.72 183.779 11.136 184.227 11.664C184.675 12.176 185.019 12.768 185.259 13.44C185.515 14.096 185.643 14.776 185.643 15.48C185.643 16.328 185.459 17.096 185.091 17.784C184.739 18.456 184.243 18.992 183.603 19.392C182.979 19.776 182.259 19.968 181.443 19.968C180.755 19.968 179.955 19.848 179.043 19.608C178.131 19.368 177.171 18.864 176.163 18.096L177.387 15.192C178.107 15.688 178.779 16.048 179.403 16.272C180.043 16.496 180.571 16.608 180.987 16.608C181.307 16.608 181.571 16.576 181.779 16.512C181.987 16.448 182.139 16.344 182.235 16.2C182.331 16.056 182.379 15.864 182.379 15.624C182.379 15.288 182.299 14.944 182.139 14.592C181.979 14.24 181.763 13.944 181.491 13.704C181.235 13.448 180.931 13.32 180.579 13.32C180.243 13.32 179.955 13.448 179.715 13.704C179.491 13.944 179.267 14.296 179.043 14.76C178.835 15.208 178.579 15.736 178.275 16.344C177.907 17.08 177.547 17.696 177.195 18.192C176.843 18.672 176.467 19.056 176.067 19.344C175.683 19.616 175.227 19.808 174.699 19.92C174.187 20.032 173.579 20.088 172.875 20.088ZM205.203 20.088C204.067 20.088 203.083 19.944 202.251 19.656C201.435 19.352 200.803 18.872 200.355 18.216C199.907 17.544 199.651 16.648 199.587 15.528L199.155 5.85602H202.539L202.947 14.352C202.979 15.008 203.083 15.512 203.259 15.864C203.451 16.2 203.723 16.432 204.075 16.56C204.427 16.672 204.883 16.728 205.443 16.728C206.051 16.728 206.483 16.888 206.739 17.208C206.995 17.512 207.123 17.896 207.123 18.36C207.123 18.856 206.955 19.272 206.619 19.608C206.299 19.928 205.827 20.088 205.203 20.088ZM200.811 17.856C199.739 18.096 198.707 18.208 197.715 18.192C196.723 18.16 195.835 17.984 195.051 17.664C194.267 17.328 193.643 16.848 193.179 16.224C192.731 15.6 192.507 14.808 192.507 13.848C192.507 13 192.691 12.232 193.059 11.544C193.443 10.84 193.971 10.224 194.643 9.69602C195.331 9.16802 196.131 8.72002 197.043 8.35202C197.955 7.98402 198.947 7.70402 200.019 7.51202L200.355 10.92C199.667 10.952 199.043 11.048 198.483 11.208C197.939 11.352 197.467 11.544 197.067 11.784C196.683 12.024 196.387 12.296 196.179 12.6C195.971 12.888 195.867 13.2 195.867 13.536C195.867 13.808 195.963 14.032 196.155 14.208C196.347 14.384 196.603 14.528 196.923 14.64C197.243 14.736 197.611 14.792 198.027 14.808C198.443 14.824 198.867 14.8 199.299 14.736C199.747 14.672 200.187 14.568 200.619 14.424L200.811 17.856ZM200.883 3.38402C200.419 3.38402 200.019 3.22402 199.683 2.90402C199.363 2.56802 199.203 2.17602 199.203 1.72802C199.203 1.26402 199.363 0.864017 199.683 0.528016C200.019 0.192017 200.419 0.0240169 200.883 0.0240169C201.331 0.0240169 201.715 0.192017 202.035 0.528016C202.355 0.864017 202.515 1.26402 202.515 1.72802C202.515 2.17602 202.355 2.56802 202.035 2.90402C201.715 3.22402 201.331 3.38402 200.883 3.38402ZM196.731 3.36002C196.267 3.36002 195.867 3.20002 195.531 2.88002C195.211 2.54402 195.051 2.15202 195.051 1.70402C195.051 1.24002 195.211 0.840017 195.531 0.504016C195.867 0.168017 196.267 1.71661e-05 196.731 1.71661e-05C197.179 1.71661e-05 197.563 0.168017 197.883 0.504016C198.203 0.840017 198.363 1.24002 198.363 1.70402C198.363 2.15202 198.203 2.54402 197.883 2.88002C197.563 3.20002 197.179 3.36002 196.731 3.36002ZM229.267 20.088C228.451 20.088 227.667 20.016 226.915 19.872C226.163 19.712 225.483 19.504 224.875 19.248C224.283 18.992 223.795 18.704 223.411 18.384L225.571 16.056C226.147 16.296 226.739 16.472 227.347 16.584C227.955 16.68 228.675 16.728 229.507 16.728C230.115 16.728 230.547 16.888 230.803 17.208C231.075 17.512 231.211 17.896 231.211 18.36C231.211 18.856 231.043 19.272 230.707 19.608C230.371 19.928 229.891 20.088 229.267 20.088ZM217.627 20.4C216.139 20.4 214.899 20.336 213.907 20.208C212.931 20.08 212.139 19.896 211.531 19.656C210.923 19.416 210.443 19.128 210.091 18.792C209.739 18.456 209.451 18.088 209.227 17.688L209.899 17.496C209.499 18.264 209.043 18.832 208.531 19.2C208.019 19.568 207.483 19.808 206.923 19.92C206.363 20.032 205.787 20.088 205.195 20.088L205.435 16.728C205.931 16.728 206.323 16.648 206.611 16.488C206.899 16.328 207.131 16.064 207.307 15.696C207.499 15.328 207.675 14.84 207.835 14.232C207.995 13.624 208.187 12.88 208.411 12L211.459 12.744C211.347 13.176 211.251 13.552 211.171 13.872C211.107 14.192 211.051 14.472 211.003 14.712C210.971 14.936 210.955 15.12 210.955 15.264C210.955 15.568 211.027 15.84 211.171 16.08C211.315 16.304 211.595 16.488 212.011 16.632C212.427 16.76 213.035 16.864 213.835 16.944C214.651 17.008 215.715 17.04 217.027 17.04C218.419 17.04 219.579 16.992 220.507 16.896C221.435 16.784 222.171 16.632 222.715 16.44C223.275 16.232 223.675 15.984 223.915 15.696C224.155 15.392 224.275 15.048 224.275 14.664C224.275 14.36 224.203 14.08 224.059 13.824C223.931 13.552 223.715 13.328 223.411 13.152C223.107 12.976 222.715 12.888 222.235 12.888C221.659 12.888 221.075 13.032 220.483 13.32C219.907 13.592 219.339 13.96 218.779 14.424C218.219 14.872 217.683 15.376 217.171 15.936C216.675 16.496 216.227 17.056 215.827 17.616L212.227 17.208C212.851 16.2 213.555 15.232 214.339 14.304C215.123 13.376 215.963 12.56 216.859 11.856C217.755 11.136 218.683 10.568 219.643 10.152C220.603 9.73602 221.579 9.52802 222.571 9.52802C223.643 9.52802 224.555 9.73602 225.307 10.152C226.059 10.568 226.635 11.144 227.035 11.88C227.435 12.616 227.635 13.464 227.635 14.424C227.635 15.592 227.299 16.624 226.627 17.52C225.971 18.416 224.907 19.12 223.435 19.632C221.979 20.144 220.043 20.4 217.627 20.4ZM229.289 20.088L229.529 16.728C230.137 16.728 230.617 16.672 230.969 16.56C231.337 16.448 231.625 16.224 231.833 15.888C232.057 15.536 232.241 15.024 232.385 14.352C232.545 13.68 232.705 12.784 232.865 11.664L236.009 12.192C235.977 12.432 235.929 12.712 235.865 13.032C235.817 13.352 235.769 13.68 235.721 14.016C235.689 14.336 235.673 14.64 235.673 14.928C235.673 15.312 235.753 15.64 235.913 15.912C236.089 16.168 236.393 16.368 236.825 16.512C237.273 16.656 237.913 16.728 238.745 16.728C239.353 16.728 239.785 16.888 240.041 17.208C240.297 17.512 240.425 17.896 240.425 18.36C240.425 18.856 240.257 19.272 239.921 19.608C239.601 19.928 239.129 20.088 238.505 20.088C237.401 20.088 236.505 19.984 235.817 19.776C235.129 19.568 234.617 19.216 234.281 18.72C233.945 18.224 233.729 17.544 233.633 16.68H234.785C234.497 17.448 234.161 18.064 233.777 18.528C233.393 18.976 232.961 19.312 232.481 19.536C232.001 19.76 231.489 19.904 230.945 19.968C230.417 20.048 229.865 20.088 229.289 20.088ZM234.185 9.21602C233.689 9.21602 233.265 9.04802 232.913 8.71202C232.577 8.37602 232.409 7.96002 232.409 7.46402C232.409 6.96802 232.577 6.54402 232.913 6.19202C233.265 5.84002 233.689 5.66402 234.185 5.66402C234.665 5.66402 235.073 5.84002 235.409 6.19202C235.761 6.54402 235.937 6.96802 235.937 7.46402C235.937 7.96002 235.761 8.37602 235.409 8.71202C235.073 9.04802 234.665 9.21602 234.185 9.21602ZM238.5 20.088L238.74 16.728C239.108 16.728 239.42 16.64 239.676 16.464C239.948 16.272 240.228 15.96 240.516 15.528C240.804 15.08 241.14 14.48 241.524 13.728C242.004 12.768 242.5 12.016 243.012 11.472C243.54 10.928 244.076 10.544 244.62 10.32C245.18 10.08 245.74 9.96002 246.3 9.96002C247.004 9.96002 247.66 10.112 248.268 10.416C248.876 10.72 249.404 11.136 249.852 11.664C250.3 12.176 250.644 12.768 250.884 13.44C251.14 14.096 251.268 14.776 251.268 15.48C251.268 16.328 251.084 17.096 250.716 17.784C250.364 18.456 249.868 18.992 249.228 19.392C248.604 19.776 247.884 19.968 247.068 19.968C246.38 19.968 245.58 19.848 244.668 19.608C243.756 19.368 242.796 18.864 241.788 18.096L243.012 15.192C243.732 15.688 244.404 16.048 245.028 16.272C245.668 16.496 246.196 16.608 246.612 16.608C246.932 16.608 247.196 16.576 247.404 16.512C247.612 16.448 247.764 16.344 247.86 16.2C247.956 16.056 248.004 15.864 248.004 15.624C248.004 15.288 247.924 14.944 247.764 14.592C247.604 14.24 247.388 13.944 247.116 13.704C246.86 13.448 246.556 13.32 246.204 13.32C245.868 13.32 245.58 13.448 245.34 13.704C245.116 13.944 244.892 14.296 244.668 14.76C244.46 15.208 244.204 15.736 243.9 16.344C243.532 17.08 243.172 17.696 242.82 18.192C242.468 18.672 242.092 19.056 241.692 19.344C241.308 19.616 240.852 19.808 240.324 19.92C239.812 20.032 239.204 20.088 238.5 20.088Z" fill="#DE8131"/>
</svg>
